<svg width="60" height="60" viewBox="0 0 60 60" fill="none" xmlns="http://www.w3.org/2000/svg">
<rect width="60" height="60" rx="30" fill="#007EFE"/>
<path d="M45.8678 34.8134L38.0629 31.316L38.0414 31.3061C37.6362 31.1328 37.1942 31.0632 36.7554 31.1037C36.3165 31.1442 35.8947 31.2935 35.5281 31.538C35.485 31.5665 35.4435 31.5975 35.4039 31.6308L31.3714 35.0685C28.8167 33.8276 26.1792 31.21 24.9383 28.6884L28.381 24.5947C28.4141 24.5532 28.4456 24.5118 28.4754 24.4671C28.7147 24.1014 28.8599 23.6823 28.898 23.247C28.9362 22.8117 28.8661 22.3737 28.6941 21.972V21.9522L25.1868 14.134C24.9594 13.6093 24.5684 13.1722 24.0722 12.8879C23.5759 12.6037 23.001 12.4875 22.4333 12.5568C20.1884 12.8522 18.1278 13.9547 16.6363 15.6584C15.1449 17.3621 14.3246 19.5504 14.3286 21.8147C14.3286 34.9691 25.0311 45.6716 38.1855 45.6716C40.4498 45.6757 42.6381 44.8554 44.3418 43.3639C46.0454 41.8724 47.1479 39.8118 47.4433 37.5669C47.5128 36.9994 47.3969 36.4246 47.1129 35.9284C46.829 35.4322 46.3922 35.0411 45.8678 34.8134ZM38.1855 43.0208C32.5632 43.0147 27.1729 40.7785 23.1973 36.8029C19.2217 32.8273 16.9855 27.437 16.9794 21.8147C16.9732 20.1968 17.556 18.6321 18.6191 17.4126C19.6822 16.1931 21.1529 15.4022 22.7564 15.1877C22.7558 15.1943 22.7558 15.201 22.7564 15.2076L26.2355 22.9943L22.8111 27.093C22.7763 27.133 22.7447 27.1757 22.7166 27.2206C22.4673 27.6031 22.3211 28.0436 22.292 28.4993C22.263 28.9551 22.3522 29.4105 22.551 29.8216C24.052 32.8916 27.1451 35.9615 30.2481 37.4608C30.6623 37.6577 31.1204 37.7438 31.5777 37.7107C32.0351 37.6776 32.476 37.5265 32.8575 37.272C32.9 37.2433 32.9409 37.2123 32.9801 37.1792L37.0076 33.7431L44.7942 37.2306C44.7942 37.2306 44.8075 37.2306 44.8124 37.2306C44.6006 38.8364 43.8109 40.31 42.5912 41.3757C41.3714 42.4414 39.8052 43.0263 38.1855 43.0208Z" fill="white"/>
</svg>
