<svg width="60" height="60" viewBox="0 0 60 60" fill="none" xmlns="http://www.w3.org/2000/svg">
<rect width="60" height="60" rx="30" fill="#49E670"/>
<path d="M30.0005 12.761C32.619 12.7621 35.2031 13.3603 37.5562 14.509C39.9092 15.6578 41.9692 17.3279 43.5806 19.3918C45.192 21.4559 46.3123 23.8596 46.856 26.4211C47.3996 28.9827 47.3525 31.6344 46.7183 34.175C46.0841 36.7157 44.8795 39.0787 43.1958 41.0842C41.5121 43.0897 39.3938 44.6857 37.0015 45.7502C34.6091 46.8148 32.0051 47.3196 29.3882 47.2278C26.7713 47.1359 24.2098 46.4496 21.8979 45.22L21.813 45.175L21.7222 45.2053L16.0044 47.1106C15.5705 47.2553 15.1048 47.2772 14.6597 47.1721C14.2145 47.0671 13.8073 46.8393 13.4839 46.5159C13.1606 46.1925 12.9336 45.7852 12.8286 45.3401C12.7236 44.895 12.7445 44.4292 12.8892 43.9954L14.7954 38.2786L14.8257 38.1868L14.7798 38.1018C13.3812 35.475 12.6865 32.5308 12.7632 29.5559C12.8399 26.5807 13.6859 23.6757 15.2183 21.1243C16.7506 18.573 18.9171 16.4619 21.5073 14.9963C24.0977 13.5308 27.0243 12.7603 30.0005 12.761ZM37.4917 17.0061C34.631 15.3563 31.3056 14.6963 28.0317 15.1292C24.7579 15.562 21.7179 17.0631 19.3843 19.3997C17.0506 21.7363 15.5532 24.7785 15.1245 28.053C14.6959 31.3273 15.3599 34.6515 17.0132 37.51C17.0925 37.6473 17.1418 37.8005 17.1577 37.9583C17.1696 38.0764 17.1626 38.1953 17.1372 38.3108L17.106 38.425L15.0112 44.7053L14.8696 45.1301L15.2954 44.9885L21.5747 42.8928C21.7251 42.8428 21.8848 42.8259 22.0425 42.842C22.1608 42.8542 22.2761 42.8846 22.3843 42.9329L22.4897 42.9866C24.7723 44.307 27.3635 45.002 30.0005 45.0002C33.3028 44.9996 36.5129 43.9087 39.1323 41.8977C41.7515 39.8868 43.6341 37.068 44.4878 33.8782C45.3415 30.688 45.119 27.3047 43.854 24.2542C42.589 21.2037 40.3524 18.656 37.4917 17.0061ZM25.9702 19.4778H25.9712C26.1802 19.4773 26.3853 19.5348 26.563 19.6448C26.7407 19.7548 26.8843 19.9126 26.9771 20.0999V20.1008L29.6636 25.4739C29.7514 25.6501 29.7911 25.8467 29.7788 26.0432C29.7665 26.2395 29.7031 26.4292 29.5942 26.593L27.9487 29.0598L27.8735 29.1731L27.939 29.2922C28.5819 30.4615 29.544 31.4238 30.7134 32.0667L30.8325 32.1321L30.9458 32.0569L33.4116 30.4104C33.5755 30.3014 33.766 30.2381 33.9624 30.2258C34.1586 30.2136 34.3547 30.2535 34.5308 30.3411L39.9038 33.0276C40.0898 33.1206 40.2467 33.2637 40.356 33.4407C40.4652 33.6176 40.5231 33.8216 40.5229 34.0295C40.5229 34.8822 40.3551 35.7272 40.0288 36.5149C39.7025 37.3025 39.2234 38.0175 38.6206 38.6204C38.0177 39.2232 37.3019 39.7023 36.5142 40.0286C35.7266 40.3547 34.8822 40.5217 34.0298 40.5217C30.1718 40.5172 26.4727 38.9832 23.7446 36.2551C21.0166 33.527 19.4824 29.8281 19.478 25.97L19.4858 25.6487C19.5653 24.0438 20.2378 22.5207 21.3794 21.3792C22.5969 20.1616 24.2484 19.4778 25.9702 19.4778ZM25.1353 21.7981C24.1711 21.9911 23.3035 22.5122 22.6802 23.2727C22.0569 24.0333 21.7161 24.9866 21.7163 25.97C21.7199 29.2344 23.0184 32.3647 25.3267 34.6731C27.635 36.9815 30.7652 38.2798 34.0298 38.2834V38.2825C35.0144 38.2857 35.9699 37.9488 36.7329 37.3264C37.496 36.7039 38.0198 35.8357 38.2144 34.8704L38.2476 34.7024L38.0942 34.6252L34.2329 32.6975L34.1167 32.6399L34.0083 32.7122L31.5552 34.3469C31.4002 34.4488 31.2224 34.5105 31.0376 34.5266C30.8524 34.5427 30.6662 34.5126 30.4956 34.4387L30.4937 34.4377L30.0806 34.2522C28.1802 33.3409 26.647 31.8079 25.7358 29.9075L25.5503 29.4954C25.4798 29.3255 25.4524 29.1403 25.4702 28.9573C25.4836 28.8199 25.5219 28.6864 25.5835 28.5637L25.6528 28.4456L27.2925 26.0042L27.3657 25.8958L27.3071 25.7795L25.3794 21.9172L25.3032 21.7649L25.1353 21.7981Z" fill="white" stroke="#49E670" stroke-width="0.447761"/>
</svg>
