<svg width="58" height="54" viewBox="0 0 58 54" fill="none" xmlns="http://www.w3.org/2000/svg">
<path d="M3.23529 25.3672V15.5672C3.23529 9.40622 3.23529 6.32902 5.13118 4.41475C7.02706 2.50049 10.0747 2.50049 16.1765 2.50049H17.2862C19.9326 2.50049 21.2526 2.50049 22.4432 2.99702C23.6338 3.49355 24.5688 4.44089 26.4388 6.32902L28.5612 8.47196C30.4344 10.3601 31.3662 11.3074 32.5568 11.804C33.7474 12.3005 35.0706 12.3005 37.7138 12.3005H42.0588C48.1606 12.3005 51.2082 12.3005 53.1041 14.2148C55 16.129 55 19.2062 55 25.3672V35.1672C55 41.3281 55 44.4053 53.1041 46.3196C51.2082 48.2338 48.1606 48.2338 42.0588 48.2338H38.8235M0 40.0672H29.1176M29.1176 40.0672L17.7941 28.6338M29.1176 40.0672L17.7941 51.5005" stroke="white" stroke-width="5"/>
</svg>
