<svg width="42" height="38" viewBox="0 0 42 38" fill="none" xmlns="http://www.w3.org/2000/svg">
<path fill-rule="evenodd" clip-rule="evenodd" d="M37.8 0C38.9139 0 39.9822 0.442499 40.7698 1.23015C41.5575 2.0178 42 3.08609 42 4.2V33.6C42 34.7139 41.5575 35.7822 40.7698 36.5698C39.9822 37.3575 38.9139 37.8 37.8 37.8H4.2C3.08609 37.8 2.0178 37.3575 1.23015 36.5698C0.442499 35.7822 0 34.7139 0 33.6V4.2C0 3.08609 0.442499 2.0178 1.23015 1.23015C2.0178 0.442499 3.08609 0 4.2 0H37.8ZM37.8 4.2H4.2V33.6H37.8V4.2ZM31.5 25.2C32.0352 25.2006 32.5501 25.4055 32.9393 25.773C33.3285 26.1404 33.5627 26.6426 33.5941 27.1769C33.6254 27.7113 33.4516 28.2374 33.108 28.6478C32.7645 29.0583 32.2772 29.3221 31.7457 29.3853L31.5 29.4H10.5C9.96475 29.3994 9.44993 29.1945 9.06073 28.827C8.67152 28.4596 8.43731 27.9574 8.40594 27.4231C8.37457 26.8887 8.54842 26.3626 8.89196 25.9522C9.2355 25.5417 9.7228 25.2779 10.2543 25.2147L10.5 25.2H31.5ZM16.8 8.4C17.9139 8.4 18.9822 8.8425 19.7698 9.63015C20.5575 10.4178 21 11.4861 21 12.6V16.8C21 17.9139 20.5575 18.9822 19.7698 19.7698C18.9822 20.5575 17.9139 21 16.8 21H12.6C11.4861 21 10.4178 20.5575 9.63015 19.7698C8.8425 18.9822 8.4 17.9139 8.4 16.8V12.6C8.4 11.4861 8.8425 10.4178 9.63015 9.63015C10.4178 8.8425 11.4861 8.4 12.6 8.4H16.8ZM31.5 16.8C32.057 16.8 32.5911 17.0212 32.9849 17.4151C33.3787 17.8089 33.6 18.343 33.6 18.9C33.6 19.457 33.3787 19.9911 32.9849 20.3849C32.5911 20.7787 32.057 21 31.5 21H25.2C24.643 21 24.1089 20.7787 23.7151 20.3849C23.3212 19.9911 23.1 19.457 23.1 18.9C23.1 18.343 23.3212 17.8089 23.7151 17.4151C24.1089 17.0212 24.643 16.8 25.2 16.8H31.5ZM16.8 12.6H12.6V16.8H16.8V12.6ZM31.5 8.4C32.0352 8.40059 32.5501 8.60555 32.9393 8.97298C33.3285 9.34042 33.5627 9.8426 33.5941 10.3769C33.6254 10.9113 33.4516 11.4374 33.108 11.8478C32.7645 12.2583 32.2772 12.5221 31.7457 12.5853L31.5 12.6H25.2C24.6648 12.5994 24.1499 12.3945 23.7607 12.027C23.3715 11.6596 23.1373 11.1574 23.1059 10.6231C23.0746 10.0887 23.2484 9.5626 23.592 9.15215C23.9355 8.7417 24.4228 8.47792 24.9543 8.4147L25.2 8.4H31.5Z" fill="white"/>
</svg>
