<svg width="50" height="50" viewBox="0 0 50 50" fill="none" xmlns="http://www.w3.org/2000/svg">
<path d="M49.4451 46.4393L45.0391 42.0548C45.9673 40.6441 46.5365 39.0298 46.6978 37.3511C46.859 35.6724 46.6074 33.9799 45.9645 32.4197C45.3217 30.8595 44.3071 29.4786 43.0083 28.3962C41.7094 27.3137 40.1655 26.5624 38.5097 26.207L38.4405 26.1945V17.703C38.4427 17.2103 38.2697 16.7327 37.9522 16.3549L37.9543 16.359V16.3486L37.8285 16.2109L37.8117 16.1921L37.7551 16.1357L22.1601 0.609368L22.0238 0.486242L21.9693 0.448679L21.8645 0.369377L21.8121 0.331813L21.6989 0.26086L21.6507 0.235817C21.6032 0.207992 21.5508 0.182254 21.4935 0.158603L21.4264 0.131473L21.3195 0.0939095L21.2441 0.0709538L21.1225 0.0396507L21.0638 0.0271294L20.8835 0H2.12755C1.56522 0.00272725 1.02661 0.225911 0.628388 0.621206C0.230168 1.0165 0.00440381 1.55208 0 2.11192L0 44.6362C0.000547006 45.1986 0.224609 45.7379 0.623244 46.1364C1.02188 46.5348 1.56269 46.76 2.12755 46.7627H36.3151C38.3594 46.7693 40.3592 46.1684 42.0584 45.0369L42.0207 45.0599L46.4267 49.4465C46.8329 49.8144 47.3659 50.0124 47.9149 49.9994C48.4639 49.9864 48.9867 49.7634 49.3749 49.3766C49.7631 48.9899 49.9867 48.4692 49.9994 47.9226C50.0121 47.376 49.8128 46.8455 49.443 46.4414L49.4451 46.4435V46.4393ZM42.4756 36.3659C42.4757 37.1726 42.3162 37.9714 42.0063 38.7167C41.6964 39.462 41.242 40.1393 40.6692 40.7098C40.0963 41.2803 39.4163 41.7329 38.6677 42.0417C37.9192 42.3505 37.1169 42.5096 36.3067 42.5097C35.4965 42.5098 34.6941 42.3511 33.9455 42.0425C33.1969 41.7339 32.5166 41.2816 31.9436 40.7113C31.3706 40.141 30.916 39.4639 30.6058 38.7187C30.2956 37.9734 30.1359 37.1747 30.1358 36.368C30.1352 34.7389 30.7847 33.1762 31.9414 32.0238C33.0981 30.8715 34.6672 30.2238 36.3036 30.2232C37.9399 30.2226 39.5095 30.8693 40.667 32.0209C41.8244 33.1725 42.475 34.7368 42.4756 36.3659ZM22.7805 7.24146L31.1503 15.5765H22.7805V7.24146ZM4.27187 4.23636H18.5107V17.703C18.5107 18.8779 19.4666 19.8295 20.6467 19.8295H34.1729V26.1945C29.3979 27.2108 25.8681 31.3762 25.8681 36.3638C25.8681 38.6782 26.6269 40.8151 27.9118 42.541L27.8908 42.5139H4.26977L4.27187 4.23636Z" fill="white"/>
</svg>
