<svg width="42" height="49" viewBox="0 0 42 49" fill="none" xmlns="http://www.w3.org/2000/svg">
<path d="M30.8298 13.1809V10.5C30.8298 10.2543 30.6287 10.0532 30.383 10.0532H8.93617C8.69043 10.0532 8.48936 10.2543 8.48936 10.5V13.1809C8.48936 13.4266 8.69043 13.6277 8.93617 13.6277H30.383C30.6287 13.6277 30.8298 13.4266 30.8298 13.1809ZM8.93617 18.0957C8.69043 18.0957 8.48936 18.2968 8.48936 18.5426V21.2234C8.48936 21.4691 8.69043 21.6702 8.93617 21.6702H19.2128C19.4585 21.6702 19.6596 21.4691 19.6596 21.2234V18.5426C19.6596 18.2968 19.4585 18.0957 19.2128 18.0957H8.93617ZM29.9362 24.5745C23.2731 24.5745 17.8723 29.9753 17.8723 36.6383C17.8723 43.3013 23.2731 48.7021 29.9362 48.7021C36.5992 48.7021 42 43.3013 42 36.6383C42 29.9753 36.5992 24.5745 29.9362 24.5745ZM35.9402 42.6423C34.3372 44.2452 32.2037 45.1277 29.9362 45.1277C27.6686 45.1277 25.5351 44.2452 23.9322 42.6423C22.3293 41.0394 21.4468 38.9059 21.4468 36.6383C21.4468 34.3707 22.3293 32.2372 23.9322 30.6343C25.5351 29.0314 27.6686 28.1489 29.9362 28.1489C32.2037 28.1489 34.3372 29.0314 35.9402 30.6343C37.5431 32.2372 38.4255 34.3707 38.4255 36.6383C38.4255 38.9059 37.5431 41.0394 35.9402 42.6423ZM34.9069 32.3936H32.4327C32.2875 32.3936 32.1535 32.4606 32.0697 32.5779L28.5231 37.4816L27.233 35.7C27.1917 35.6425 27.1371 35.5957 27.0739 35.5636C27.0108 35.5315 26.9408 35.5151 26.8699 35.5157H24.4069C24.0439 35.5157 23.8316 35.929 24.0439 36.225L28.1657 41.9274C28.3444 42.1731 28.7074 42.1731 28.8862 41.9274L35.2644 33.1029C35.4822 32.8069 35.2699 32.3936 34.9069 32.3936ZM16.9787 43.3404H4.02128V4.02128H35.2979V23.234C35.2979 23.4798 35.4989 23.6809 35.7447 23.6809H38.8723C39.1181 23.6809 39.3191 23.4798 39.3191 23.234V1.78723C39.3191 0.79867 38.5205 0 37.5319 0H1.78723C0.79867 0 0 0.79867 0 1.78723V45.5745C0 46.563 0.79867 47.3617 1.78723 47.3617H16.9787C17.2245 47.3617 17.4255 47.1606 17.4255 46.9149V43.7872C17.4255 43.5415 17.2245 43.3404 16.9787 43.3404Z" fill="white"/>
</svg>
