<svg width="746" height="230" viewBox="0 0 746 230" fill="none" xmlns="http://www.w3.org/2000/svg">
<path d="M184.711 26.8907C175.545 26.8907 167.944 30.0173 161.905 36.2693C155.865 42.5227 152.848 50.6934 152.848 60.78C152.848 71.0814 155.865 79.412 161.905 85.7693C167.944 92.1267 175.545 95.3053 184.711 95.3053C193.591 95.3053 201.068 92.0747 207.143 85.608C213.216 79.1453 216.255 70.9027 216.255 60.8867C216.255 50.9414 213.269 42.788 207.301 36.4293C201.335 30.072 193.803 26.8907 184.711 26.8907ZM154.125 3.02136V15.808C159.384 10.552 165.065 6.60933 171.176 3.98132C177.285 1.35332 183.821 0.038681 190.784 0.038681C205.916 0.038681 218.775 5.75734 229.36 17.1933C239.947 28.6333 245.239 43.3027 245.239 61.2053C245.239 78.4693 239.768 92.908 228.828 104.524C217.887 116.139 204.92 121.947 189.932 121.947C183.255 121.947 177.037 120.757 171.283 118.377C165.529 115.999 159.809 112.108 154.125 106.708V161.376H125.247V3.02136H154.125Z" fill="#293E89"/>
<path d="M252.859 2.984H341.627L289.537 94.3094H338.643V118.927H244.867L297.197 27.6H252.859V2.984Z" fill="#293E89"/>
<path d="M465.993 30.4827C460.579 21.0987 453.072 13.676 443.456 8.21201C433.824 2.73068 423.544 0.00801086 412.599 0.00801086C397.469 0.00801086 384.067 5.256 372.425 15.768C359.139 27.8427 352.496 42.9387 352.496 61.0574C352.496 77.964 358.375 92.3467 370.133 104.172C381.409 115.515 394.912 121.411 410.673 121.876C410.656 121.609 410.623 121.377 410.589 121.177C407.849 104.288 399.113 95.6187 388.185 83.8267C366.977 60.9587 380.779 24.4373 411.901 23.1747C444.271 21.8627 460.529 59.8453 438.408 83.8107C427.779 95.336 418.677 104.769 416.004 121.177C415.971 121.377 415.955 121.593 415.937 121.825C426.001 121.36 435.252 118.72 443.723 113.871C453.089 108.507 460.496 101.065 465.927 91.5333C471.375 82.0173 474.081 71.7867 474.081 60.8413C474.081 49.98 471.391 39.8493 465.993 30.4827Z" fill="#63C434"/>
<path d="M497.851 2.984H526.943V14.8667C533.54 9.30534 539.515 5.43738 544.872 3.26271C550.227 1.08804 555.708 1.52588e-05 561.313 1.52588e-05C572.804 1.52588e-05 582.559 4.01469 590.576 12.0427C597.315 18.8627 600.685 28.9507 600.685 42.3067V118.927H571.912V68.1534C571.912 54.316 571.292 45.1294 570.051 40.5867C568.811 36.044 566.649 32.5867 563.565 30.208C560.481 27.8307 556.673 26.6413 552.139 26.6413C546.256 26.6413 541.205 28.612 536.989 32.5494C532.772 36.4894 529.848 41.9347 528.219 48.8894C527.367 52.508 526.943 60.3494 526.943 72.4107V118.927H497.851V2.984Z" fill="#293E89"/>
<path d="M715.88 46.4627C713.959 39.9987 710.168 34.7413 704.511 30.6907C698.853 26.6413 692.289 24.6173 684.817 24.6173C676.704 24.6173 669.588 26.892 663.469 31.4373C659.627 34.2787 656.068 39.288 652.793 46.4627H715.88ZM744.972 69.3733H651.515C652.864 77.616 656.471 84.1693 662.331 89.0347C668.192 93.9013 675.668 96.3347 684.763 96.3347C695.633 96.3347 704.973 92.5347 712.789 84.932L737.299 96.4413C731.189 105.109 723.872 111.52 715.347 115.676C706.821 119.832 696.699 121.909 684.976 121.909C666.789 121.909 651.976 116.175 640.539 104.7C629.1 93.228 623.383 78.8587 623.383 61.5947C623.383 43.9053 629.083 29.2173 640.485 17.5307C651.888 5.84533 666.185 0 683.379 0C701.635 0 716.483 5.84533 727.921 17.5307C739.359 29.2173 745.079 44.6507 745.079 63.8333L744.972 69.3733Z" fill="#293E89"/>
<path d="M411.549 52.3573C405.108 53.544 405.032 64.2453 412.165 65.1933C422.54 66.5733 422.436 50.356 411.549 52.3573ZM411.567 47.3973C427.712 45.368 429.208 69.26 414.127 70.196C399.232 71.1213 397.635 49.1493 411.567 47.3973Z" fill="#63C434"/>
<path d="M2.14526 3.02134H30.8869V50.9507C30.8869 59.332 31.6202 65.26 33.0869 68.7347C34.5521 72.2093 36.9734 74.9867 40.3494 77.064C43.724 79.1413 47.7973 80.1813 52.5724 80.1813C57.6177 80.1813 61.964 79.024 65.6135 76.7067C69.2598 74.3907 71.7844 71.444 73.1812 67.8667C74.5786 64.2893 75.2786 57.4587 75.2786 47.3747V3.02134H104.021V43.3587C104.021 58.496 103.168 68.9987 101.464 74.8627C99.7588 80.728 96.5026 86.3867 91.6964 91.8413C86.888 97.2973 81.3478 101.337 75.075 103.963C68.8 106.587 61.5041 107.9 53.1854 107.9C42.275 107.9 32.7786 105.395 24.6989 100.383C16.6188 95.3693 10.8401 89.0973 7.36141 81.5613C3.88433 74.028 2.14526 61.2933 2.14526 43.3587V3.02134Z" fill="#293E89"/>
<path d="M108.831 126.636C108.615 127.533 108.416 128.429 108.2 129.327C106.721 135.687 105.227 142.064 103.749 148.443C103.102 151.149 100.161 152.495 97.6197 151.913C94.9136 151.299 93.5349 148.325 94.1333 145.785C94.3495 144.888 94.5479 143.991 94.764 143.095C95.1453 141.467 95.5104 139.839 95.8932 138.212C65.9333 155.749 27.7349 153.391 0 131.169C2.72396 127.765 5.46407 124.377 8.18803 120.973C31.6375 139.756 63.9068 141.765 89.2333 126.968C86.4599 126.337 83.6693 125.673 80.8959 125.025C78.1896 124.393 76.8437 121.437 77.4093 118.897C78.0229 116.207 81.012 114.828 83.5531 115.409C84.4333 115.625 85.3307 115.841 86.2281 116.04C92.6052 117.535 98.9828 119.013 105.343 120.508C106.621 120.807 107.619 121.62 108.233 122.683C108.349 122.883 108.449 123.099 108.532 123.315C108.98 124.344 109.096 125.54 108.831 126.636Z" fill="#63C434"/>
<path d="M370.959 184.695C372.175 183.816 372.781 182.581 372.781 180.984C372.781 179.443 372.16 178.255 370.919 177.416C369.677 176.579 367.843 176.159 365.412 176.159H356.656V186.011H365.967C368.079 186.011 369.743 185.572 370.959 184.695ZM369.449 172.103C370.637 171.253 371.232 170.003 371.232 168.355C371.232 166.944 370.704 165.827 369.648 165.003C368.592 164.179 367.073 163.767 365.093 163.767H356.656V173.379H364.855C366.729 173.379 368.261 172.955 369.449 172.103ZM369.057 161.483C370.167 161.815 371.119 162.277 371.912 162.873C372.705 163.469 373.312 164.199 373.737 165.057C374.159 165.919 374.371 166.879 374.371 167.937C374.371 168.865 374.245 169.672 373.995 170.361C373.741 171.049 373.407 171.657 372.984 172.188C372.56 172.717 372.092 173.16 371.576 173.519C371.061 173.875 370.527 174.173 369.972 174.412C370.792 174.649 371.564 174.963 372.292 175.345C373.017 175.729 373.645 176.187 374.175 176.716C374.704 177.247 375.128 177.881 375.443 178.623C375.761 179.364 375.92 180.211 375.92 181.164C375.92 182.356 375.683 183.428 375.207 184.381C374.729 185.335 374.049 186.136 373.164 186.785C372.279 187.433 371.215 187.929 369.972 188.273C368.729 188.619 367.355 188.791 365.849 188.791H353.517V160.987H365.332C366.705 160.987 367.948 161.152 369.057 161.483Z" fill="#666A6D"/>
<path d="M404.916 176.915C404.916 178.953 404.637 180.741 404.081 182.276C403.525 183.813 402.737 185.096 401.717 186.129C400.699 187.161 399.48 187.936 398.064 188.453C396.648 188.969 395.065 189.228 393.317 189.228C391.596 189.228 390.027 188.969 388.611 188.453C387.193 187.936 385.976 187.169 384.956 186.149C383.936 185.131 383.149 183.865 382.593 182.356C382.037 180.847 381.759 179.112 381.759 177.152V160.987H384.896V176.955C384.896 179.973 385.645 182.291 387.141 183.905C388.637 185.521 390.721 186.328 393.396 186.328C395.965 186.328 398.004 185.56 399.513 184.024C401.023 182.488 401.777 180.199 401.777 177.152V160.987H404.916V176.915Z" fill="#666A6D"/>
<path d="M415.083 169.696C415.293 170.225 415.677 170.709 416.233 171.148C416.791 171.585 417.557 171.983 418.539 172.341C419.517 172.7 420.775 173.037 422.312 173.356C425.409 174.044 427.693 174.999 429.163 176.219C430.632 177.439 431.368 179.123 431.368 181.271C431.368 182.465 431.132 183.552 430.66 184.535C430.191 185.515 429.543 186.351 428.715 187.039C427.888 187.729 426.892 188.26 425.727 188.632C424.561 189.001 423.291 189.188 421.915 189.188C419.689 189.188 417.656 188.828 415.817 188.111C413.976 187.393 412.221 186.283 410.553 184.779L412.5 182.476C413.956 183.8 415.427 184.785 416.909 185.433C418.392 186.084 420.1 186.408 422.033 186.408C423.913 186.408 425.416 185.971 426.541 185.095C427.667 184.22 428.229 183.065 428.229 181.633C428.229 180.971 428.123 180.381 427.911 179.864C427.699 179.347 427.327 178.876 426.796 178.452C426.265 178.028 425.529 177.644 424.587 177.299C423.645 176.953 422.443 176.621 420.984 176.304C419.391 175.959 418.003 175.56 416.823 175.109C415.641 174.659 414.665 174.115 413.895 173.479C413.125 172.843 412.555 172.1 412.184 171.252C411.812 170.403 411.627 169.395 411.627 168.228C411.627 167.113 411.851 166.093 412.301 165.164C412.752 164.236 413.387 163.433 414.209 162.759C415.029 162.081 415.995 161.551 417.108 161.167C418.22 160.781 419.437 160.591 420.763 160.591C422.801 160.591 424.581 160.871 426.104 161.431C427.627 161.992 429.103 162.837 430.533 163.965L428.707 166.388C427.408 165.329 426.104 164.561 424.793 164.085C423.484 163.608 422.112 163.371 420.683 163.371C419.781 163.371 418.968 163.489 418.24 163.728C417.511 163.967 416.889 164.285 416.373 164.683C415.857 165.081 415.46 165.559 415.181 166.115C414.904 166.672 414.765 167.268 414.765 167.905C414.765 168.568 414.871 169.165 415.083 169.696Z" fill="#666A6D"/>
<path d="M441.178 160.987V188.791H438.042V160.987H441.178Z" fill="#666A6D"/>
<path d="M469.776 160.987H472.835V188.791H470.332L452.379 165.991V188.791H449.321V160.987H452.26L469.776 183.269V160.987Z" fill="#666A6D"/>
<path d="M500.798 163.847H483.838V173.34H499.011V176.2H483.838V185.931H500.996V188.791H480.7V160.987H500.798V163.847Z" fill="#666A6D"/>
<path d="M510.052 169.696C510.264 170.225 510.648 170.709 511.204 171.148C511.761 171.585 512.528 171.983 513.508 172.341C514.488 172.7 515.745 173.037 517.281 173.356C520.379 174.044 522.663 174.999 524.133 176.219C525.601 177.439 526.337 179.123 526.337 181.271C526.337 182.465 526.101 183.552 525.631 184.535C525.16 185.515 524.512 186.351 523.685 187.039C522.859 187.729 521.863 188.26 520.697 188.632C519.532 189.001 518.261 189.188 516.884 189.188C514.659 189.188 512.627 188.828 510.787 188.111C508.945 187.393 507.192 186.283 505.524 184.779L507.471 182.476C508.927 183.8 510.396 184.785 511.879 185.433C513.363 186.084 515.069 186.408 517.003 186.408C518.883 186.408 520.385 185.971 521.511 185.095C522.637 184.22 523.2 183.065 523.2 181.633C523.2 180.971 523.093 180.381 522.88 179.864C522.668 179.347 522.297 178.876 521.767 178.452C521.235 178.028 520.499 177.644 519.556 177.299C518.615 176.953 517.413 176.621 515.953 176.304C514.361 175.959 512.973 175.56 511.792 175.109C510.611 174.659 509.636 174.115 508.865 173.479C508.096 172.843 507.525 172.1 507.155 171.252C506.781 170.403 506.597 169.395 506.597 168.228C506.597 167.113 506.821 166.093 507.271 165.164C507.721 164.236 508.357 163.433 509.179 162.759C509.999 162.081 510.965 161.551 512.079 161.167C513.191 160.781 514.408 160.591 515.732 160.591C517.771 160.591 519.551 160.871 521.075 161.431C522.597 161.992 524.073 162.837 525.503 163.965L523.676 166.388C522.379 165.329 521.075 164.561 519.764 164.085C518.453 163.608 517.083 163.371 515.653 163.371C514.752 163.371 513.937 163.489 513.211 163.728C512.481 163.967 511.86 164.285 511.343 164.683C510.827 165.081 510.431 165.559 510.152 166.115C509.875 166.672 509.735 167.268 509.735 167.905C509.735 168.568 509.84 169.165 510.052 169.696Z" fill="#666A6D"/>
<path d="M535.115 169.696C535.326 170.225 535.711 170.709 536.267 171.148C536.823 171.585 537.591 171.983 538.571 172.341C539.55 172.7 540.808 173.037 542.344 173.356C545.442 174.044 547.726 174.999 549.196 176.219C550.664 177.439 551.4 179.123 551.4 181.271C551.4 182.465 551.164 183.552 550.694 184.535C550.223 185.515 549.575 186.351 548.748 187.039C547.922 187.729 546.926 188.26 545.76 188.632C544.595 189.001 543.323 189.188 541.947 189.188C539.722 189.188 537.69 188.828 535.85 188.111C534.008 187.393 532.255 186.283 530.587 184.779L532.534 182.476C533.99 183.8 535.459 184.785 536.942 185.433C538.426 186.084 540.132 186.408 542.066 186.408C543.946 186.408 545.448 185.971 546.574 185.095C547.7 184.22 548.263 183.065 548.263 181.633C548.263 180.971 548.156 180.381 547.943 179.864C547.731 179.347 547.36 178.876 546.828 178.452C546.298 178.028 545.562 177.644 544.619 177.299C543.678 176.953 542.476 176.621 541.016 176.304C539.424 175.959 538.036 175.56 536.855 175.109C535.674 174.659 534.699 174.115 533.928 173.479C533.158 172.843 532.588 172.1 532.216 171.252C531.844 170.403 531.659 169.395 531.659 168.228C531.659 167.113 531.883 166.093 532.334 165.164C532.784 164.236 533.42 163.433 534.242 162.759C535.062 162.081 536.028 161.551 537.142 161.167C538.254 160.781 539.471 160.591 540.795 160.591C542.834 160.591 544.614 160.871 546.138 161.431C547.659 161.992 549.136 162.837 550.566 163.965L548.739 166.388C547.44 165.329 546.138 164.561 544.826 164.085C543.516 163.608 542.146 163.371 540.715 163.371C539.815 163.371 539 163.489 538.272 163.728C537.544 163.967 536.923 164.285 536.406 164.683C535.89 165.081 535.492 165.559 535.214 166.115C534.936 166.672 534.798 167.268 534.798 167.905C534.798 168.568 534.903 169.165 535.115 169.696Z" fill="#666A6D"/>
<path d="M375.104 226.703C374.323 227.299 373.481 227.809 372.583 228.232C371.683 228.655 370.716 228.985 369.684 229.225C368.651 229.464 367.499 229.583 366.228 229.583C364.215 229.583 362.361 229.211 360.667 228.471C358.972 227.729 357.503 226.716 356.259 225.431C355.013 224.148 354.04 222.632 353.339 220.883C352.636 219.136 352.287 217.257 352.287 215.244C352.287 213.259 352.636 211.391 353.339 209.644C354.04 207.895 355.013 206.367 356.259 205.055C357.503 203.745 358.985 202.712 360.707 201.957C362.428 201.203 364.308 200.825 366.347 200.825C367.617 200.825 368.763 200.931 369.783 201.144C370.801 201.356 371.748 201.652 372.623 202.037C373.497 202.421 374.305 202.884 375.047 203.427C375.787 203.971 376.503 204.572 377.191 205.235L375.047 207.539C373.853 206.427 372.575 205.512 371.212 204.797C369.848 204.083 368.213 203.724 366.307 203.724C364.771 203.724 363.348 204.016 362.037 204.599C360.727 205.181 359.588 205.988 358.621 207.021C357.655 208.053 356.9 209.265 356.357 210.655C355.815 212.045 355.543 213.549 355.543 215.164C355.543 216.779 355.815 218.289 356.357 219.692C356.9 221.096 357.655 222.315 358.621 223.347C359.588 224.379 360.727 225.193 362.037 225.789C363.348 226.384 364.771 226.683 366.307 226.683C368.213 226.683 369.855 226.332 371.232 225.631C372.609 224.928 373.959 223.941 375.284 222.671L377.349 224.697C376.636 225.439 375.885 226.107 375.104 226.703Z" fill="#666A6D"/>
<path d="M405.133 210.756C404.591 209.352 403.828 208.133 402.849 207.1C401.869 206.068 400.712 205.248 399.375 204.639C398.037 204.029 396.573 203.724 394.985 203.724C393.396 203.724 391.933 204.023 390.596 204.619C389.259 205.213 388.113 206.029 387.16 207.061C386.207 208.093 385.459 209.305 384.916 210.696C384.373 212.087 384.101 213.576 384.101 215.164C384.101 216.753 384.373 218.249 384.916 219.652C385.459 221.056 386.219 222.273 387.2 223.307C388.179 224.339 389.337 225.16 390.675 225.769C392.012 226.379 393.476 226.683 395.064 226.683C396.653 226.683 398.116 226.384 399.453 225.789C400.791 225.193 401.935 224.379 402.889 223.347C403.843 222.315 404.591 221.101 405.133 219.712C405.676 218.321 405.947 216.832 405.947 215.244C405.947 213.655 405.676 212.159 405.133 210.756ZM408.172 220.665C407.484 222.4 406.516 223.928 405.272 225.253C404.028 226.577 402.532 227.631 400.784 228.411C399.037 229.192 397.103 229.583 394.985 229.583C392.867 229.583 390.939 229.199 389.207 228.429C387.471 227.663 385.981 226.623 384.737 225.313C383.492 224.001 382.533 222.48 381.857 220.745C381.183 219.011 380.844 217.177 380.844 215.244C380.844 213.312 381.188 211.477 381.877 209.743C382.565 208.008 383.532 206.48 384.776 205.155C386.021 203.831 387.517 202.779 389.265 201.996C391.013 201.216 392.945 200.825 395.064 200.825C397.183 200.825 399.108 201.209 400.844 201.977C402.577 202.745 404.067 203.784 405.312 205.095C406.556 206.405 407.516 207.928 408.192 209.663C408.868 211.397 409.205 213.232 409.205 215.164C409.205 217.097 408.86 218.931 408.172 220.665Z" fill="#666A6D"/>
<path d="M436.293 201.303H439.352V229.105H436.849L418.896 206.307V229.105H415.837V201.303H418.776L436.293 223.585V201.303Z" fill="#666A6D"/>
<path d="M449.957 210.011C450.168 210.54 450.552 211.025 451.108 211.463C451.665 211.9 452.433 212.299 453.413 212.656C454.392 213.015 455.651 213.352 457.187 213.671C460.284 214.36 462.568 215.315 464.039 216.535C465.507 217.755 466.243 219.437 466.243 221.587C466.243 222.78 466.007 223.868 465.536 224.849C465.065 225.829 464.417 226.665 463.591 227.355C462.764 228.044 461.768 228.575 460.601 228.947C459.436 229.316 458.165 229.503 456.789 229.503C454.564 229.503 452.532 229.144 450.692 228.427C448.851 227.708 447.097 226.597 445.429 225.093L447.376 222.791C448.831 224.115 450.301 225.1 451.784 225.749C453.268 226.399 454.975 226.723 456.908 226.723C458.788 226.723 460.291 226.285 461.416 225.411C462.543 224.536 463.104 223.38 463.104 221.948C463.104 221.285 462.997 220.697 462.785 220.179C462.573 219.661 462.203 219.192 461.671 218.767C461.14 218.343 460.404 217.959 459.461 217.613C458.52 217.268 457.319 216.936 455.859 216.619C454.267 216.273 452.879 215.875 451.697 215.425C450.516 214.975 449.541 214.429 448.769 213.793C448 213.157 447.431 212.416 447.059 211.567C446.687 210.717 446.501 209.709 446.501 208.543C446.501 207.428 446.725 206.408 447.176 205.48C447.627 204.551 448.263 203.749 449.084 203.073C449.904 202.396 450.871 201.867 451.984 201.483C453.096 201.096 454.313 200.905 455.637 200.905C457.676 200.905 459.456 201.185 460.98 201.747C462.501 202.308 463.979 203.152 465.408 204.28L463.581 206.704C462.283 205.645 460.98 204.876 459.668 204.4C458.359 203.924 456.988 203.685 455.557 203.685C454.656 203.685 453.843 203.805 453.115 204.043C452.385 204.281 451.765 204.6 451.248 204.997C450.732 205.396 450.335 205.873 450.056 206.429C449.779 206.987 449.64 207.584 449.64 208.22C449.64 208.883 449.745 209.481 449.957 210.011Z" fill="#666A6D"/>
<path d="M495.358 217.229C495.358 219.268 495.079 221.056 494.523 222.592C493.967 224.128 493.179 225.412 492.159 226.444C491.14 227.477 489.922 228.252 488.506 228.768C487.09 229.284 485.507 229.543 483.759 229.543C482.038 229.543 480.468 229.284 479.052 228.768C477.635 228.252 476.418 227.484 475.398 226.464C474.379 225.445 473.591 224.18 473.035 222.671C472.479 221.161 472.2 219.427 472.2 217.468V201.303H475.338V217.269C475.338 220.288 476.087 222.605 477.583 224.22C479.079 225.836 481.163 226.644 483.838 226.644C486.407 226.644 488.446 225.875 489.955 224.339C491.464 222.804 492.219 220.513 492.219 217.468V201.303H495.358V217.229Z" fill="#666A6D"/>
<path d="M502.784 201.303H505.923V226.205H521.572V229.105H502.784V201.303Z" fill="#666A6D"/>
<path d="M533.924 229.105H530.785V204.201H521.452V201.303H543.259V204.201H533.924V229.105Z" fill="#666A6D"/>
<path d="M552.592 201.303V229.105H549.455V201.303H552.592Z" fill="#666A6D"/>
<path d="M581.189 201.303H584.248V229.105H581.745L563.792 206.307V229.105H560.733V201.303H563.672L581.189 223.585V201.303Z" fill="#666A6D"/>
<path d="M611.396 228.335C609.503 229.165 607.379 229.583 605.021 229.583C602.823 229.583 600.857 229.211 599.123 228.471C597.388 227.729 595.905 226.709 594.675 225.412C593.443 224.115 592.503 222.592 591.855 220.844C591.205 219.096 590.88 217.229 590.88 215.244C590.88 213.337 591.219 211.509 591.893 209.761C592.569 208.015 593.516 206.48 594.733 205.155C595.951 203.831 597.415 202.779 599.123 201.996C600.831 201.216 602.731 200.825 604.823 200.825C605.988 200.825 607.053 200.905 608.02 201.064C608.987 201.223 609.887 201.461 610.721 201.779C611.555 202.096 612.336 202.487 613.064 202.951C613.792 203.415 614.5 203.936 615.189 204.519L613.164 206.903C612.635 206.427 612.077 205.995 611.495 205.611C610.913 205.228 610.284 204.896 609.608 204.619C608.935 204.34 608.192 204.121 607.384 203.963C606.577 203.804 605.683 203.724 604.704 203.724C603.167 203.724 601.751 204.031 600.453 204.64C599.156 205.251 598.044 206.073 597.117 207.107C596.189 208.143 595.461 209.355 594.933 210.748C594.403 212.141 594.139 213.619 594.139 215.184C594.139 216.856 594.396 218.4 594.913 219.819C595.429 221.239 596.163 222.465 597.117 223.5C598.071 224.535 599.221 225.344 600.573 225.927C601.924 226.511 603.445 226.803 605.141 226.803C606.729 226.803 608.224 226.529 609.629 225.984C611.032 225.439 612.211 224.781 613.164 224.011V217.071H604.704V214.291H616.183V225.344C614.884 226.505 613.289 227.503 611.396 228.335Z" fill="#666A6D"/>
<path d="M655.148 204.201H638.307V214.132H653.36V216.991H638.307V229.105H635.168V201.303H655.148V204.201Z" fill="#666A6D"/>
<path d="M660.191 204.083V201.303H681.879V203.411L663.845 226.325H681.879V229.105H659.596V226.997L677.589 204.083H660.191Z" fill="#666A6D"/>
<path d="M708.431 226.703C707.649 227.299 706.808 227.809 705.908 228.232C705.008 228.655 704.043 228.985 703.008 229.225C701.976 229.464 700.824 229.583 699.553 229.583C697.541 229.583 695.687 229.211 693.992 228.471C692.297 227.729 690.827 226.716 689.584 225.431C688.339 224.148 687.365 222.632 686.664 220.883C685.963 219.136 685.611 217.257 685.611 215.244C685.611 213.259 685.963 211.391 686.664 209.644C687.365 207.895 688.339 206.367 689.584 205.055C690.827 203.745 692.311 202.712 694.032 201.957C695.754 201.203 697.634 200.825 699.672 200.825C700.943 200.825 702.09 200.931 703.108 201.144C704.127 201.356 705.075 201.652 705.948 202.037C706.823 202.421 707.629 202.884 708.372 203.427C709.112 203.971 709.827 204.572 710.516 205.235L708.372 207.539C707.179 206.427 705.902 205.512 704.539 204.797C703.174 204.083 701.54 203.724 699.633 203.724C698.097 203.724 696.674 204.016 695.363 204.599C694.052 205.181 692.914 205.988 691.947 207.021C690.98 208.053 690.226 209.265 689.683 210.655C689.14 212.045 688.869 213.549 688.869 215.164C688.869 216.779 689.14 218.289 689.683 219.692C690.226 221.096 690.98 222.315 691.947 223.347C692.914 224.379 694.052 225.193 695.363 225.789C696.674 226.384 698.097 226.683 699.633 226.683C701.54 226.683 703.18 226.332 704.558 225.631C705.935 224.928 707.284 223.941 708.609 222.671L710.675 224.697C709.96 225.439 709.212 226.107 708.431 226.703Z" fill="#666A6D"/>
<path d="M738.459 210.756C737.916 209.352 737.155 208.133 736.175 207.1C735.195 206.068 734.037 205.248 732.7 204.639C731.363 204.029 729.899 203.724 728.311 203.724C726.721 203.724 725.259 204.023 723.921 204.619C722.584 205.213 721.439 206.029 720.487 207.061C719.532 208.093 718.784 209.305 718.241 210.696C717.699 212.087 717.428 213.576 717.428 215.164C717.428 216.753 717.699 218.249 718.241 219.652C718.784 221.056 719.545 222.273 720.525 223.307C721.504 224.339 722.663 225.16 724 225.769C725.337 226.379 726.801 226.683 728.389 226.683C729.979 226.683 731.441 226.384 732.779 225.789C734.116 225.193 735.261 224.379 736.215 223.347C737.168 222.315 737.916 221.101 738.459 219.712C739.001 218.321 739.272 216.832 739.272 215.244C739.272 213.655 739.001 212.159 738.459 210.756ZM741.497 220.665C740.809 222.4 739.841 223.928 738.599 225.253C737.353 226.577 735.857 227.631 734.109 228.411C732.363 229.192 730.429 229.583 728.311 229.583C726.192 229.583 724.265 229.199 722.532 228.429C720.796 227.663 719.307 226.623 718.063 225.313C716.819 224.001 715.859 222.48 715.183 220.745C714.508 219.011 714.169 217.177 714.169 215.244C714.169 213.312 714.513 211.477 715.203 209.743C715.891 208.008 716.857 206.48 718.101 205.155C719.347 203.831 720.843 202.779 722.591 201.996C724.339 201.216 726.271 200.825 728.389 200.825C730.508 200.825 732.435 201.209 734.169 201.977C735.903 202.745 737.392 203.784 738.637 205.095C739.881 206.405 740.841 207.928 741.517 209.663C742.193 211.397 742.531 213.232 742.531 215.164C742.531 217.097 742.185 218.931 741.497 220.665Z" fill="#666A6D"/>
<path d="M443.723 113.871C453.089 108.507 460.496 101.067 465.927 91.5333C471.375 82.0173 474.081 71.7867 474.081 60.8427C474.081 49.98 471.391 39.8493 465.993 30.4827C460.58 21.1 453.073 13.676 443.457 8.21201C433.824 2.73202 423.544 0.00801086 412.6 0.00801086C397.471 0.00801086 384.068 5.256 372.425 15.768C359.139 27.8427 352.496 42.9387 352.496 61.0574C352.496 77.964 358.376 92.3467 370.133 104.172C381.411 115.515 394.912 121.411 410.673 121.876C410.656 121.609 410.624 121.377 410.591 121.179C407.849 104.288 399.115 95.6187 388.187 83.8267C366.979 60.9573 380.779 24.4373 411.903 23.176C444.271 21.864 460.529 59.8453 438.408 83.8107C427.779 95.336 418.679 104.769 416.004 121.179C415.971 121.377 415.955 121.593 415.937 121.824C426.003 121.361 435.253 118.72 443.723 113.871Z" fill="#63C434"/>
</svg>
